# xmcd
#
# Track frame offsets: 
#        150
#        11541
#        24601
#        38523
#        50164
#        60548
#        72848
#        84755
#        96491
#        108352
#        118761
#        129165
#        143994
#        156299
#        174310
#        185316
#        196782
#        207905
#        220020
#        231526
#        244860
#        256078
#        267398
#        277899
#        291703
#        302267
#        313783
#        324740
#        335765
#        347117
#
# Disc length: 4799 seconds
#
# Revision: 0
# Processed by: cddbd v1.5.1PL0 Copyright (c) Steve Scherf et al.
# Submitted via: ExactAudioCopy v0.95a5
#
DISCID=bc12bd1e
DTITLE=Kanye West - Instrumentals King Volume 1 (Presented by J. Armz)
DTITLE=Various Artist - CD1
DYEAR=1900
DGENRE=Hip-Hop Instrumentals
TTITLE0=The Truth - Beanie Sigel
TTITLE1=Poppa Was A Playa - Nas
TTITLE2=My Way - Kanye West
TTITLE3=Hear The Song - Freeway
TTITLE4=Be Alright - Trina f. Ludacris
TTITLE5=Family Business - Kanye West
TTITLE6=Guerilla Monsoon Rap - Talib Kweli
TTITLE7=Guess Who's Back - Scarface
TTITLE8=Mom Praying - Beanie Sigel f. Scarface
TTITLE9=Wow - Kanye West
TTITLE10=Get By - Talib Kweli
TTITLE11=Poppin' Tags - Jay Z
TTITLE12=Movie - Kanye West
TTITLE13=Turn Out The Lights - Freeway
TTITLE14=Never Change - Jay Z
TTITLE15=Hang Em' High - Kanye West
TTITLE16=Slowjams - Kanye West and Twista
TTITLE17=People Talk - Jay Z
TTITLE18=I Want You - Janet Jackson
TTITLE19=Spaceship - Kanye West
TTITLE20=Good To You - Talib Kweli
TTITLE21=Selfish - Slum Village
TTITLE22=I Wanna Love U - Young Gunz
TTITLE23=Nothing Like It - Beanie Sigel
TTITLE24=Like You - Kanye West
TTITLE25=Breath In Breath Out - Kanye West
TTITLE26=Bonnie and Clyde '03 - Jay Z f. Beyonce
TTITLE27=Hold On Remix - Dweli
TTITLE28=My Life - Foxy Brown
TTITLE29=This Can't Be Life - Jay Z
EXTD=
EXTT0=
EXTT1=
EXTT2=
EXTT3=
EXTT4=
EXTT5=
EXTT6=
EXTT7=
EXTT8=
EXTT9=
EXTT10=
EXTT11=
EXTT12=
EXTT13=
EXTT14=
EXTT15=
EXTT16=
EXTT17=
EXTT18=
EXTT19=
EXTT20=
EXTT21=
EXTT22=
EXTT23=
EXTT24=
EXTT25=
EXTT26=
EXTT27=
EXTT28=
EXTT29=
PLAYORDER=
